<?xml version="1.0" encoding="utf-8"?>
<!-- Generator: Adobe Illustrator 27.6.1, SVG Export Plug-In . SVG Version: 6.00 Build 0)  -->
<svg version="1.1" id="Capa_1" xmlns="http://www.w3.org/2000/svg" xmlns:xlink="http://www.w3.org/1999/xlink" x="0px" y="0px"
	 viewBox="0 0 1080 312.88" style="enable-background:new 0 0 1080 312.88;" xml:space="preserve">
<style type="text/css">
	.st0{fill:#CE2E89;}
	.st1{fill:#FFFFFF;}
</style>
<path class="st0" d="M4,67.59v5.64l12.81,1.02c0,0,15.63,2.31,18.96,15.37l65.85,179.34c0,0,11.53,29.72,17.68,28.44
	c0,0,4.61,3.33,13.07-21.52c0,0,60.12-180.2,142.79-198.3c0,0-75.5,10.59-128.79,94.97c0,0,73.1-156.8,202.92-91.55
	c0,0-169.01-102.82-250.49,122.38L64.98,89.11c0,0-2.82-12.81,14.6-12.81h8.45V69.9L4,67.59z"/>
<g>
	<path class="st1" d="M420.7,40.52c-2.45-1.29-4.99-2.3-7.62-3.04c-2.64-0.74-5.31-1.11-8.01-1.11c-3.22,0-6.23,0.61-9.02,1.83
		c-2.8,1.22-5.25,2.88-7.34,4.97c-2.09,2.09-3.75,4.55-4.97,7.38c-1.22,2.83-1.83,5.82-1.83,8.98c0,3.28,0.61,6.37,1.83,9.27
		c1.22,2.9,2.9,5.44,5.02,7.62c2.12,2.19,4.62,3.91,7.48,5.16c2.86,1.25,5.97,1.88,9.31,1.88c3.22,0,6.08-0.42,8.59-1.25
		c2.51-0.84,5.18-1.9,8.01-3.19l2.61,9.65c-5.79,3.28-12.06,4.92-18.82,4.92c-4.57,0-8.91-0.84-13.03-2.51
		c-4.12-1.67-7.75-3.99-10.88-6.95c-3.13-2.96-5.63-6.45-7.48-10.47c-1.85-4.02-2.78-8.35-2.78-12.98c0-4.7,0.84-9.12,2.53-13.27
		c1.69-4.15,4.02-7.8,7-10.96c2.98-3.15,6.51-5.65,10.59-7.48c4.09-1.83,8.51-2.75,13.27-2.75c3.67,0,7.14,0.6,10.42,1.79
		c3.28,1.19,6.47,2.82,9.56,4.87L420.7,40.52z"/>
	<path class="st1" d="M449.95,75.66h16.12l4.44,10.13h-25.67l-3.86,7.72h-11.29l33.69-67.28l33.69,67.28h-11.29l-22.39-44.69
		L449.95,75.66z"/>
	<path class="st1" d="M544.63,74.31c0,2.96-0.65,5.63-1.95,8.01c-1.3,2.38-3.02,4.39-5.16,6.03c-2.14,1.64-4.55,2.9-7.22,3.76
		c-2.67,0.87-5.36,1.3-8.06,1.3c-3.93,0-7.5-0.39-10.71-1.16c-3.22-0.77-6.5-2.16-9.85-4.15l3.38-8.59c1.99,0.9,3.7,1.61,5.12,2.12
		c1.42,0.52,2.72,0.92,3.91,1.21c1.19,0.29,2.4,0.48,3.62,0.58c1.22,0.1,2.61,0.14,4.15,0.14c1.48,0,2.98-0.21,4.49-0.63
		c1.51-0.42,2.86-1.03,4.05-1.83c1.19-0.8,2.17-1.83,2.94-3.09c0.77-1.25,1.16-2.75,1.16-4.49c0-2.7-0.79-4.81-2.36-6.32
		c-1.58-1.51-3.54-2.77-5.89-3.76c-2.35-1-4.91-1.91-7.67-2.75c-2.77-0.84-5.33-1.95-7.67-3.33c-2.35-1.38-4.31-3.23-5.89-5.55
		c-1.58-2.32-2.36-5.41-2.36-9.27c0-2.77,0.55-5.18,1.64-7.24c1.1-2.06,2.56-3.78,4.4-5.16c1.84-1.38,3.95-2.41,6.33-3.09
		c2.38-0.68,4.83-1.01,7.35-1.01c1.35,0,2.95,0.13,4.79,0.39c1.84,0.26,3.71,0.61,5.61,1.06c1.9,0.45,3.72,0.98,5.46,1.59
		c1.74,0.61,3.19,1.27,4.35,1.98l-2.51,9.07c-1.1-0.64-2.41-1.22-3.93-1.74c-1.52-0.51-3.11-0.95-4.75-1.3
		c-1.65-0.35-3.29-0.63-4.9-0.82c-1.62-0.19-3.04-0.29-4.27-0.29c-1.16,0-2.31,0.1-3.44,0.29c-1.13,0.19-2.14,0.53-3.01,1.01
		c-0.88,0.48-1.59,1.17-2.14,2.08c-0.55,0.9-0.82,2.03-0.82,3.38c0,1.09,0.13,2.08,0.39,2.94c0.26,0.87,0.81,1.69,1.65,2.46
		c0.58,0.52,1.38,1,2.38,1.45c1,0.45,2.07,0.87,3.2,1.25c1.13,0.39,2.25,0.74,3.35,1.06c1.1,0.32,2.04,0.61,2.82,0.87
		c2.46,0.9,4.79,2,6.99,3.28c2.2,1.29,4.13,2.8,5.78,4.54c1.65,1.74,2.95,3.73,3.88,5.98C544.16,68.84,544.63,71.41,544.63,74.31z"
		/>
	<path class="st1" d="M567.03,93.51h-1.93h-8.2V26.24h8.2h1.93V93.51z"/>
	<path class="st1" d="M627.83,26.24h10.13v67.28l-40.64-42.28v42.28H587.2V26.24l40.64,42.28V26.24z"/>
	<path class="st1" d="M682.71,26.33c4.12,0,7.65,0.43,10.58,1.3c2.93,0.87,5.45,2,7.54,3.38c2.09,1.38,3.82,2.94,5.17,4.68
		c1.35,1.74,2.51,3.48,3.48,5.21c1.74,3.22,2.96,6.36,3.67,9.41c0.71,3.06,1.03,6.26,0.97,9.6c0.06,3.41-0.26,6.65-0.97,9.7
		c-0.71,3.06-1.93,6.16-3.67,9.31c-0.97,1.8-2.13,3.57-3.48,5.31c-1.35,1.74-3.08,3.3-5.17,4.68c-2.09,1.38-4.61,2.49-7.54,3.33
		c-2.93,0.84-6.46,1.25-10.58,1.25c-4.12,0-7.65-0.42-10.59-1.25c-2.93-0.84-5.45-1.95-7.54-3.33c-2.09-1.38-3.83-2.94-5.22-4.68
		c-1.39-1.74-2.56-3.51-3.53-5.31c-1.68-3.15-2.85-6.26-3.53-9.31c-0.68-3.06-1.05-6.29-1.11-9.7c-0.06-3.34,0.27-6.55,1.01-9.6
		c0.74-3.06,1.95-6.19,3.63-9.41c0.96-1.74,2.14-3.47,3.53-5.21c1.38-1.74,3.12-3.3,5.22-4.68c2.09-1.38,4.61-2.51,7.54-3.38
		C675.05,26.77,678.58,26.33,682.71,26.33z M703.6,65.6c0.13-0.96,0.22-1.91,0.29-2.84c0.06-0.93,0.1-1.87,0.1-2.84
		c0-0.9-0.03-1.82-0.1-2.79c-0.07-0.96-0.16-1.89-0.29-2.79c-0.32-1.79-0.8-3.49-1.45-5.09c-0.32-0.77-0.66-1.52-1.01-2.26
		c-0.35-0.74-0.76-1.46-1.21-2.16c-0.45-0.9-1.03-1.79-1.74-2.69c-1.29-1.6-2.96-2.85-5.02-3.75c-0.71-0.32-1.42-0.59-2.12-0.82
		c-0.71-0.22-1.42-0.4-2.12-0.53c-2.12-0.38-4.22-0.58-6.27-0.58c-2.12,0-4.25,0.19-6.37,0.58c-0.71,0.13-1.42,0.31-2.12,0.53
		c-0.71,0.22-1.42,0.5-2.12,0.82c-0.9,0.45-1.77,0.98-2.61,1.59c-0.84,0.61-1.61,1.33-2.32,2.16c-0.64,0.77-1.25,1.67-1.83,2.69
		c-0.9,1.35-1.64,2.82-2.22,4.42c-0.64,1.79-1.09,3.49-1.35,5.09c-0.13,0.9-0.23,1.83-0.29,2.79c-0.07,0.96-0.1,1.89-0.1,2.79
		c0,0.96,0.03,1.91,0.1,2.84c0.06,0.93,0.16,1.87,0.29,2.84c0.26,1.6,0.71,3.27,1.35,5c0.58,1.48,1.32,2.98,2.22,4.52
		c0.32,0.45,0.63,0.9,0.92,1.35c0.29,0.45,0.59,0.87,0.92,1.25c1.35,1.67,2.99,2.95,4.92,3.85c0.71,0.32,1.42,0.58,2.12,0.77
		c0.71,0.19,1.41,0.35,2.12,0.48c2.12,0.38,4.25,0.58,6.37,0.58c2.06,0,4.15-0.19,6.27-0.58c0.71-0.13,1.41-0.29,2.12-0.48
		c0.71-0.19,1.42-0.45,2.12-0.77c1.93-0.9,3.6-2.18,5.02-3.85c0.32-0.38,0.63-0.8,0.92-1.25c0.29-0.45,0.56-0.9,0.82-1.35
		c0.9-1.54,1.64-3.04,2.22-4.52C702.8,68.99,703.28,67.33,703.6,65.6z"/>
</g>
<g>
	<path class="st1" d="M280.1,115.74c9.73,0,18.05,1.02,24.97,3.07c6.92,2.05,12.85,4.71,17.79,7.97c4.94,3.27,9.01,6.95,12.21,11.04
		c3.19,4.1,5.93,8.2,8.21,12.3c4.11,7.59,7,14.99,8.67,22.2c1.67,7.21,2.43,14.77,2.28,22.66c0.15,8.05-0.61,15.68-2.28,22.89
		c-1.67,7.21-4.56,14.54-8.67,21.98c-2.28,4.25-5.02,8.43-8.21,12.53c-3.2,4.1-7.26,7.78-12.21,11.04
		c-4.94,3.27-10.87,5.89-17.79,7.86c-6.92,1.97-15.24,2.96-24.97,2.96c-9.73,0-18.06-0.99-24.98-2.96
		c-6.92-1.97-12.85-4.59-17.79-7.86c-4.94-3.26-9.05-6.95-12.32-11.04c-3.27-4.1-6.04-8.27-8.32-12.53
		c-3.96-7.44-6.73-14.76-8.33-21.98c-1.6-7.21-2.47-14.84-2.62-22.89c-0.15-7.89,0.64-15.45,2.39-22.66
		c1.75-7.21,4.6-14.61,8.55-22.2c2.28-4.1,5.05-8.2,8.32-12.3c3.27-4.1,7.37-7.78,12.32-11.04c4.94-3.26,10.87-5.92,17.79-7.97
		C262.04,116.76,270.37,115.74,280.1,115.74z M329.4,208.37c0.3-2.27,0.53-4.5,0.68-6.69c0.15-2.19,0.23-4.42,0.23-6.69
		c0-2.11-0.08-4.31-0.23-6.58c-0.15-2.27-0.38-4.46-0.68-6.58c-0.76-4.23-1.9-8.24-3.42-12.02c-0.76-1.81-1.56-3.59-2.39-5.33
		c-0.84-1.74-1.79-3.44-2.85-5.1c-1.06-2.11-2.43-4.23-4.1-6.35c-3.04-3.78-6.98-6.73-11.84-8.85c-1.67-0.75-3.34-1.4-5.01-1.93
		c-1.67-0.53-3.34-0.94-5.01-1.25c-5.01-0.9-9.95-1.36-14.8-1.36c-5.01,0-10.02,0.46-15.03,1.36c-1.67,0.31-3.34,0.72-5.01,1.25
		c-1.67,0.53-3.34,1.17-5.01,1.93c-2.13,1.06-4.18,2.31-6.15,3.74c-1.97,1.44-3.8,3.14-5.47,5.1c-1.52,1.81-2.96,3.93-4.33,6.35
		c-2.13,3.18-3.87,6.65-5.24,10.43c-1.52,4.23-2.58,8.24-3.19,12.02c-0.31,2.12-0.53,4.31-0.68,6.58c-0.15,2.27-0.23,4.46-0.23,6.58
		c0,2.27,0.07,4.5,0.23,6.69c0.15,2.19,0.38,4.42,0.68,6.69c0.61,3.78,1.67,7.71,3.19,11.79c1.37,3.48,3.11,7.03,5.24,10.66
		c0.76,1.06,1.48,2.12,2.16,3.17c0.68,1.06,1.4,2.04,2.16,2.95c3.19,3.94,7.06,6.96,11.61,9.07c1.67,0.76,3.34,1.36,5.01,1.81
		c1.67,0.46,3.34,0.83,5.01,1.13c5.01,0.91,10.02,1.36,15.03,1.36c4.86,0,9.79-0.45,14.8-1.36c1.67-0.3,3.34-0.68,5.01-1.13
		c1.67-0.45,3.34-1.06,5.01-1.81c4.55-2.11,8.5-5.14,11.84-9.07c0.76-0.9,1.48-1.89,2.16-2.95c0.68-1.06,1.33-2.11,1.94-3.17
		c2.12-3.63,3.87-7.18,5.24-10.66C327.5,216.38,328.64,212.45,329.4,208.37z"/>
	<path class="st1" d="M464.67,250.32v23.91H409.1h-23.46V115.51h7.51h16.4v134.82H464.67z"/>
	<path class="st1" d="M577.85,149.21c-5.77-3.04-11.77-5.43-17.99-7.17c-6.23-1.74-12.53-2.62-18.9-2.62
		c-7.59,0-14.69,1.44-21.29,4.33c-6.6,2.89-12.38,6.8-17.31,11.73c-4.93,4.94-8.85,10.74-11.73,17.42
		c-2.89,6.68-4.33,13.74-4.33,21.18c0,7.74,1.44,15.03,4.33,21.86c2.88,6.83,6.83,12.83,11.84,17.99
		c5.01,5.16,10.89,9.22,17.65,12.18c6.75,2.96,14.08,4.44,21.98,4.44c7.59,0,14.35-0.99,20.27-2.96c5.92-1.97,12.22-4.48,18.9-7.52
		l6.15,22.77c-13.66,7.74-28.47,11.61-44.41,11.61c-10.78,0-21.03-1.97-30.74-5.92c-9.72-3.95-18.27-9.41-25.67-16.4
		c-7.4-6.98-13.28-15.22-17.65-24.71c-4.37-9.49-6.55-19.7-6.55-30.63c0-11.08,1.99-21.52,5.98-31.31
		c3.99-9.79,9.49-18.41,16.51-25.85c7.02-7.44,15.35-13.32,24.99-17.65c9.64-4.33,20.08-6.49,31.31-6.49
		c8.65,0,16.85,1.41,24.59,4.21c7.74,2.81,15.26,6.64,22.55,11.5L577.85,149.21z"/>
	<path class="st1" d="M646.85,232.11h38.03l10.47,23.91h-60.58l-9.11,18.22h-26.64l79.48-158.73l79.48,158.73h-26.64L678.5,168.8
		L646.85,232.11z"/>
	<path class="st1" d="M869.34,115.51h23.91v158.73l-95.87-99.75v99.75h-23.91V115.51l95.88,99.75V115.51z"/>
	<path class="st1" d="M998.8,115.74c9.73,0,18.05,1.02,24.97,3.07c6.92,2.05,12.85,4.71,17.79,7.97c4.94,3.27,9.01,6.95,12.21,11.04
		c3.19,4.1,5.93,8.2,8.21,12.3c4.11,7.59,7,14.99,8.67,22.2c1.67,7.21,2.43,14.77,2.28,22.66c0.15,8.05-0.61,15.68-2.28,22.89
		c-1.67,7.21-4.56,14.54-8.67,21.98c-2.28,4.25-5.02,8.43-8.21,12.53c-3.2,4.1-7.26,7.78-12.21,11.04
		c-4.94,3.27-10.87,5.89-17.79,7.86c-6.92,1.97-15.24,2.96-24.97,2.96c-9.73,0-18.06-0.99-24.98-2.96
		c-6.92-1.97-12.85-4.59-17.79-7.86c-4.94-3.26-9.05-6.95-12.32-11.04c-3.27-4.1-6.04-8.27-8.32-12.53
		c-3.96-7.44-6.73-14.76-8.33-21.98c-1.6-7.21-2.47-14.84-2.62-22.89c-0.15-7.89,0.64-15.45,2.39-22.66
		c1.75-7.21,4.6-14.61,8.55-22.2c2.28-4.1,5.05-8.2,8.32-12.3c3.27-4.1,7.37-7.78,12.32-11.04c4.94-3.26,10.87-5.92,17.79-7.97
		C980.75,116.76,989.07,115.74,998.8,115.74z M1048.11,208.37c0.3-2.27,0.53-4.5,0.68-6.69c0.15-2.19,0.23-4.42,0.23-6.69
		c0-2.11-0.08-4.31-0.23-6.58c-0.15-2.27-0.38-4.46-0.68-6.58c-0.76-4.23-1.9-8.24-3.42-12.02c-0.76-1.81-1.56-3.59-2.39-5.33
		c-0.84-1.74-1.79-3.44-2.85-5.1c-1.06-2.11-2.43-4.23-4.1-6.35c-3.04-3.78-6.98-6.73-11.84-8.85c-1.67-0.75-3.34-1.4-5.01-1.93
		c-1.67-0.53-3.34-0.94-5.01-1.25c-5.01-0.9-9.95-1.36-14.8-1.36c-5.01,0-10.02,0.46-15.03,1.36c-1.67,0.31-3.34,0.72-5.01,1.25
		c-1.67,0.53-3.34,1.17-5.01,1.93c-2.13,1.06-4.18,2.31-6.15,3.74c-1.97,1.44-3.8,3.14-5.47,5.1c-1.52,1.81-2.96,3.93-4.33,6.35
		c-2.13,3.18-3.87,6.65-5.24,10.43c-1.52,4.23-2.58,8.24-3.19,12.02c-0.31,2.12-0.53,4.31-0.68,6.58c-0.15,2.27-0.23,4.46-0.23,6.58
		c0,2.27,0.07,4.5,0.23,6.69c0.15,2.19,0.38,4.42,0.68,6.69c0.61,3.78,1.67,7.71,3.19,11.79c1.37,3.48,3.11,7.03,5.24,10.66
		c0.76,1.06,1.48,2.12,2.16,3.17c0.68,1.06,1.4,2.04,2.16,2.95c3.19,3.94,7.06,6.96,11.61,9.07c1.67,0.76,3.34,1.36,5.01,1.81
		c1.67,0.46,3.34,0.83,5.01,1.13c5.01,0.91,10.02,1.36,15.03,1.36c4.86,0,9.79-0.45,14.8-1.36c1.67-0.3,3.34-0.68,5.01-1.13
		c1.67-0.45,3.34-1.06,5.01-1.81c4.55-2.11,8.5-5.14,11.84-9.07c0.76-0.9,1.48-1.89,2.16-2.95c0.68-1.06,1.33-2.11,1.94-3.17
		c2.12-3.63,3.87-7.18,5.24-10.66C1046.21,216.38,1047.35,212.45,1048.11,208.37z"/>
</g>
</svg>
