<svg xmlns="http://www.w3.org/2000/svg" width="149.343" height="40.639" viewBox="0 0 149.343 40.639">
  <g id="Group_10" data-name="Group 10" transform="translate(697.046 -2373)">
    <path id="Path_40" data-name="Path 40" d="M118.218-15.12a9.559,9.559,0,0,1-6.553,2.632,10.581,10.581,0,0,1-8.433-3.6q-3.115-3.6-3.115-9.614a14.429,14.429,0,0,1,1.746-6.982,13.1,13.1,0,0,1,4.9-5.1,13.362,13.362,0,0,1,6.969-1.88,12.972,12.972,0,0,1,7,1.947,13.109,13.109,0,0,1,4.874,5.505,18.911,18.911,0,0,1,1.8,8.2v3.464a23.506,23.506,0,0,1-2.538,11.226,17.52,17.52,0,0,1-7.238,7.3A22.615,22.615,0,0,1,106.67.537h-.564V-6.714l1.719-.027Q117.17-7.2,118.218-15.12Zm-4.109-3.894a4.406,4.406,0,0,0,4.243-2.551v-3.76a9.776,9.776,0,0,0-1.262-5.559,3.959,3.959,0,0,0-3.411-1.8,3.742,3.742,0,0,0-3.2,2.041,9.067,9.067,0,0,0-1.289,4.941,8.13,8.13,0,0,0,1.316,4.874A4.209,4.209,0,0,0,114.109-19.014ZM152.3,0H143.22V-28.9l-8.916,2.6v-6.875L151.465-39.1h.833Z" transform="translate(-700 2412.666)" fill="#083d77"/>
    <path id="Path_41" data-name="Path 41" d="M2.954,0V-39.1H17q7.546,0,11.481,2.766a9.2,9.2,0,0,1,3.934,8.03,9.3,9.3,0,0,1-1.4,5.183,8.137,8.137,0,0,1-4.109,3.169,8.241,8.241,0,0,1,4.7,3.008,8.745,8.745,0,0,1,1.638,5.371q0,5.747-3.639,8.634T18.826,0ZM12.38-16.624v9.373h6.177a5.875,5.875,0,0,0,3.921-1.168,4.088,4.088,0,0,0,1.37-3.29q0-4.888-4.861-4.915Zm0-6.177h4.915a7,7,0,0,0,4.4-1.128,4,4,0,0,0,1.316-3.25,4.2,4.2,0,0,0-1.423-3.558A7.636,7.636,0,0,0,17-31.824H12.38ZM52.073.537A14.937,14.937,0,0,1,41.25-3.451a13.772,13.772,0,0,1-4.136-10.38v-.752a17.845,17.845,0,0,1,1.652-7.869,12.085,12.085,0,0,1,4.821-5.277,14.552,14.552,0,0,1,7.52-1.866q6.123,0,9.668,3.8T64.319-15.2v3.518H46.326a6.523,6.523,0,0,0,2.122,3.84,6.313,6.313,0,0,0,4.243,1.4A8.134,8.134,0,0,0,59.4-9.453L63.54-4.565A11.561,11.561,0,0,1,58.746-.846,16.2,16.2,0,0,1,52.073.537ZM51.052-22.612q-3.975,0-4.727,5.264h9.131v-.7a4.483,4.483,0,0,0-1.1-3.37A4.381,4.381,0,0,0,51.052-22.612ZM78.5-36.282v7.224h4.78v6.284H78.5V-9.48A3.394,3.394,0,0,0,79.089-7.2a3.169,3.169,0,0,0,2.336.645,13.277,13.277,0,0,0,2.256-.161V-.242a16.7,16.7,0,0,1-5.1.779q-4.673,0-6.9-2.2T69.448-8.352V-22.773H65.742v-6.284h3.706v-7.224Z" transform="translate(-700 2413.102)" fill="#da4167"/>
  </g>
</svg>
